<svg width="48" height="48" viewBox="0 0 48 48" fill="none" xmlns="http://www.w3.org/2000/svg">
<path fill-rule="evenodd" clip-rule="evenodd" d="M6.5 20.06C6.5 14.66 11.24 10.5 16.8 10.5C19.666 10.5 22.19 11.844 24 13.584C25.81 11.844 28.332 10.5 31.2 10.5C36.76 10.5 41.5 14.66 41.5 20.06C41.5 23.76 39.922 27.012 37.736 29.764C35.556 32.508 32.7 34.838 29.968 36.732C28.922 37.456 27.868 38.122 26.9 38.614C25.994 39.076 24.95 39.5 24 39.5C23.05 39.5 22.008 39.076 21.1 38.614C20.0387 38.053 19.0146 37.4244 18.034 36.732C15.3 34.838 12.446 32.508 10.264 29.764C8.078 27.012 6.5 23.76 6.5 20.06ZM16.8 13.5C12.64 13.5 9.5 16.56 9.5 20.06C9.5 22.866 10.692 25.48 12.612 27.896C14.536 30.316 17.126 32.454 19.742 34.266C20.732 34.952 21.662 35.534 22.462 35.942C23.318 36.378 23.814 36.5 24 36.5C24.186 36.5 24.682 36.378 25.54 35.94C26.4828 35.443 27.3915 34.8838 28.26 34.266C30.874 32.454 33.464 30.318 35.388 27.896C37.308 25.48 38.5 22.866 38.5 20.06C38.5 16.56 35.36 13.5 31.2 13.5C28.812 13.5 26.58 14.926 25.19 16.738C25.0499 16.9205 24.8698 17.0684 24.6634 17.1701C24.4571 17.2719 24.2301 17.3248 24 17.3248C23.7699 17.3248 23.5429 17.2719 23.3366 17.1701C23.1302 17.0684 22.9501 16.9205 22.81 16.738C21.42 14.926 19.19 13.5 16.8 13.5Z" fill="white"/>
</svg>
